<svg xmlns="http://www.w3.org/2000/svg" viewBox="0 0 866.5 716.6" ><polyline fill="none" stroke="#231F20" stroke-width="3" stroke-miterlimit="10" points="568,66 568,144 138,144 138,337 138,613 8,613 8,642 1,642 1,715 110,715 110,691 424,691 424,617 356,617 356,519 847,519 847,221 865,221 865,163 844,163 844,78 863,78 863,66"/><polyline fill="none" stroke="#231F20" stroke-width="3" stroke-miterlimit="10" points="625,0 625,26 808,26 808,49"/><g><path fill="none" stroke="#231F20" stroke-miterlimit="10" d="M177.2 401.2c-2.9-7.8-4.5-16.2-4.5-24.9c0-39.2 31.6-71 70.6-71 c39 0 70 31 70 71c0 15.6-5 30.1-13.5 41"/><g><g><path fill="none" stroke="#231F20" stroke-miterlimit="10" d="M254.5 446.4c-0.7 0.1-1.3 0.2-2 0"/><path fill="none" stroke="#231F20" stroke-miterlimit="10" stroke-dasharray="4.0391,4.0391" d="M248.5 447 c-1.7 0.1-3.4 0.2-5.1 0.2c-28.8 0-53.6-17.4-64.6-42.3"/><path fill="none" stroke="#231F20" stroke-miterlimit="10" d="M178 403.1c-0.2-0.6-0.5-1.2-0.7-1.9"/></g></g><path fill="none" stroke="#231F20" stroke-miterlimit="10" d="M300.4 418.1c-10.8 14.8-27.1 25.3-45.9 28"/></g><g><path fill="none" stroke="#231F20" stroke-miterlimit="10" d="M812.5 400.7c2.2 6 3 12 3 19.2c0 30.2-24.3 54.7-54.4 54 c-30 0-54.4-24.5-54.4-54.7c0-12 3.9-23.2 10.4-32.2"/><g><g><path fill="none" stroke="#231F20" stroke-miterlimit="10" d="M753 365.9c0.7-0.1 1.3-0.2 2-0.3"/><path fill="none" stroke="#231F20" stroke-miterlimit="10" stroke-dasharray="4.1552,4.1552" d="M759.1 365 c0.8 0 1.6-0.1 2.5-0.1c21.9 0 40 13 49 31"/><path fill="none" stroke="#231F20" stroke-miterlimit="10" d="M811.8 398.8c0.3 0 0 1 0 1"/></g></g><path fill="none" stroke="#231F20" stroke-miterlimit="10" d="M717.7 387.7c8.3-11.4 20.9-19.5 35.4-21.8"/></g><rect x="457" y="365" fill="none" stroke="#231F20" stroke-miterlimit="10" width="74" height="74"/><g><rect x="164" y="509" fill="none" stroke="#231F20" stroke-miterlimit="10" width="43" height="21"/><rect x="164" y="517" fill="none" stroke="#231F20" stroke-miterlimit="10" width="43" height="4"/></g><g><rect x="164" y="565" fill="none" stroke="#231F20" stroke-miterlimit="10" width="43" height="21"/><rect x="164" y="574" fill="none" stroke="#231F20" stroke-miterlimit="10" width="43" height="4"/></g><g><rect x="309" y="529" fill="none" stroke="#231F20" stroke-miterlimit="10" width="43" height="21"/><rect x="309" y="538" fill="none" stroke="#231F20" stroke-miterlimit="10" width="43" height="4"/></g><g><rect x="308" y="587" fill="none" stroke="#231F20" stroke-miterlimit="10" width="43" height="21"/><rect x="308" y="596" fill="none" stroke="#231F20" stroke-miterlimit="10" width="43" height="4"/></g><g><rect x="357" y="645" fill="none" stroke="#231F20" stroke-miterlimit="10" width="43" height="21"/><rect x="357" y="654" fill="none" stroke="#231F20" stroke-miterlimit="10" width="43" height="4"/></g><g><rect x="384" y="415" fill="none" stroke="#231F20" stroke-miterlimit="10" width="43" height="21"/><rect x="384" y="424" fill="none" stroke="#231F20" stroke-miterlimit="10" width="43" height="4"/></g><g><rect x="384" y="370" fill="none" stroke="#231F20" stroke-miterlimit="10" width="43" height="21"/><rect x="384" y="378" fill="none" stroke="#231F20" stroke-miterlimit="10" width="43" height="4"/></g><g><g><line fill="none" stroke="#231F20" stroke-width="2" stroke-miterlimit="10" x1="201" y1="261" x2="174" y2="261"/><polyline fill="none" stroke="#231F20" stroke-miterlimit="10" points="175,261 175,272 201,272 201,261"/></g><g><line fill="none" stroke="#231F20" stroke-width="2" stroke-miterlimit="10" x1="201" y1="261" x2="201" y2="233"/><polyline fill="none" stroke="#231F20" stroke-miterlimit="10" points="201,235 190,235 190,261 201,261"/></g><g><line fill="none" stroke="#231F20" stroke-width="2" stroke-miterlimit="10" x1="201" y1="261" x2="229" y2="261"/><polyline fill="none" stroke="#231F20" stroke-miterlimit="10" points="227,261 227,249 201,249 201,261"/></g><g><line fill="none" stroke="#231F20" stroke-width="2" stroke-miterlimit="10" x1="201" y1="261" x2="201" y2="288"/><polyline fill="none" stroke="#231F20" stroke-miterlimit="10" points="201,287 213,287 213,261 201,261"/></g></g><g><g><line fill="none" stroke="#231F20" stroke-width="2" stroke-miterlimit="10" x1="278" y1="274" x2="251" y2="274"/><polyline fill="none" stroke="#231F20" stroke-miterlimit="10" points="252,274 252,285 278,285 278,274"/></g><g><line fill="none" stroke="#231F20" stroke-width="2" stroke-miterlimit="10" x1="278" y1="274" x2="278" y2="246"/><polyline fill="none" stroke="#231F20" stroke-miterlimit="10" points="278,248 267,248 267,274 278,274"/></g><g><line fill="none" stroke="#231F20" stroke-width="2" stroke-miterlimit="10" x1="278" y1="274" x2="305" y2="274"/><polyline fill="none" stroke="#231F20" stroke-miterlimit="10" points="304,274 304,262 278,262 278,274"/></g><g><line fill="none" stroke="#231F20" stroke-width="2" stroke-miterlimit="10" x1="278" y1="274" x2="278" y2="301"/><polyline fill="none" stroke="#231F20" stroke-miterlimit="10" points="278,300 289,300 289,274 278,274"/></g></g><g><g><line fill="none" stroke="#231F20" stroke-width="2" stroke-miterlimit="10" x1="385" y1="259" x2="358" y2="259"/><polyline fill="none" stroke="#231F20" stroke-miterlimit="10" points="359,259 359,271 385,271 385,259"/></g><g><line fill="none" stroke="#231F20" stroke-width="2" stroke-miterlimit="10" x1="385" y1="259" x2="385" y2="232"/><polyline fill="none" stroke="#231F20" stroke-miterlimit="10" points="385,233 374,233 374,259 385,259"/></g><g><line fill="none" stroke="#231F20" stroke-width="2" stroke-miterlimit="10" x1="385" y1="259" x2="412" y2="259"/><polyline fill="none" stroke="#231F20" stroke-miterlimit="10" points="411,259 411,248 385,248 385,259"/></g><g><line fill="none" stroke="#231F20" stroke-width="2" stroke-miterlimit="10" x1="385" y1="259" x2="385" y2="287"/><polyline fill="none" stroke="#231F20" stroke-miterlimit="10" points="385,285 396,285 396,259 385,259"/></g></g><g><g><line fill="none" stroke="#231F20" stroke-width="2" stroke-miterlimit="10" x1="363" y1="332" x2="336" y2="332"/><polyline fill="none" stroke="#231F20" stroke-miterlimit="10" points="337,332 337,343 363,343 363,332"/></g><g><line fill="none" stroke="#231F20" stroke-width="2" stroke-miterlimit="10" x1="363" y1="332" x2="363" y2="305"/><polyline fill="none" stroke="#231F20" stroke-miterlimit="10" points="363,306 352,306 352,332 363,332"/></g><g><line fill="none" stroke="#231F20" stroke-width="2" stroke-miterlimit="10" x1="363" y1="332" x2="391" y2="332"/><polyline fill="none" stroke="#231F20" stroke-miterlimit="10" points="389,332 389,321 363,321 363,332"/></g><g><line fill="none" stroke="#231F20" stroke-width="2" stroke-miterlimit="10" x1="363" y1="332" x2="363" y2="359"/><polyline fill="none" stroke="#231F20" stroke-miterlimit="10" points="363,358 375,358 375,332 363,332"/></g></g><g><g><line fill="none" stroke="#231F20" stroke-width="2" stroke-miterlimit="10" x1="607" y1="300" x2="579" y2="300"/><polyline fill="none" stroke="#231F20" stroke-miterlimit="10" points="581,300 581,311 607,311 607,300"/></g><g><line fill="none" stroke="#231F20" stroke-width="2" stroke-miterlimit="10" x1="607" y1="300" x2="607" y2="272"/><polyline fill="none" stroke="#231F20" stroke-miterlimit="10" points="607,274 595,274 595,300 607,300"/></g><g><line fill="none" stroke="#231F20" stroke-width="2" stroke-miterlimit="10" x1="607" y1="300" x2="634" y2="300"/><polyline fill="none" stroke="#231F20" stroke-miterlimit="10" points="633,300 633,288 607,288 607,300"/></g><g><line fill="none" stroke="#231F20" stroke-width="2" stroke-miterlimit="10" x1="607" y1="300" x2="607" y2="327"/><polyline fill="none" stroke="#231F20" stroke-miterlimit="10" points="607,326 618,326 618,300 607,300"/></g></g><g><g><line fill="none" stroke="#231F20" stroke-width="2" stroke-miterlimit="10" x1="735" y1="277" x2="708" y2="277"/><polyline fill="none" stroke="#231F20" stroke-miterlimit="10" points="709,277 709,288 735,288 735,277"/></g><g><line fill="none" stroke="#231F20" stroke-width="2" stroke-miterlimit="10" x1="735" y1="277" x2="735" y2="249"/><polyline fill="none" stroke="#231F20" stroke-miterlimit="10" points="735,251 724,251 724,277 735,277"/></g><g><line fill="none" stroke="#231F20" stroke-width="2" stroke-miterlimit="10" x1="735" y1="277" x2="762" y2="277"/><polyline fill="none" stroke="#231F20" stroke-miterlimit="10" points="761,277 761,265 735,265 735,277"/></g><g><line fill="none" stroke="#231F20" stroke-width="2" stroke-miterlimit="10" x1="735" y1="277" x2="735" y2="304"/><polyline fill="none" stroke="#231F20" stroke-miterlimit="10" points="735,303 746,303 746,277 735,277"/></g></g><g><g><line fill="none" stroke="#231F20" stroke-width="2" stroke-miterlimit="10" x1="671" y1="372" x2="644" y2="372"/><polyline fill="none" stroke="#231F20" stroke-miterlimit="10" points="645,372 645,384 671,384 671,372"/></g><g><line fill="none" stroke="#231F20" stroke-width="2" stroke-miterlimit="10" x1="671" y1="372" x2="671" y2="345"/><polyline fill="none" stroke="#231F20" stroke-miterlimit="10" points="671,346 660,346 660,372 671,372"/></g><g><line fill="none" stroke="#231F20" stroke-width="2" stroke-miterlimit="10" x1="671" y1="372" x2="698" y2="372"/><polyline fill="none" stroke="#231F20" stroke-miterlimit="10" points="697,372 697,361 671,361 671,372"/></g><g><line fill="none" stroke="#231F20" stroke-width="2" stroke-miterlimit="10" x1="671" y1="372" x2="671" y2="400"/><polyline fill="none" stroke="#231F20" stroke-miterlimit="10" points="671,398 683,398 683,372 671,372"/></g></g><g><path fill="none" stroke="#231F20" stroke-miterlimit="10" d="M195.1 647c-3.3-1.9-17.2 0.7-17.2 0.7s-1.5 2.1-1.1 5 c0.4 3 2 5 2 5.2l5.5-0.8l3.8 1.5l3.4 2.5l2.2 5.1c0 0 2 0 5.6-0.9s3.9-3.8 3.9-3.8S198.4 648 195 647z"/><path fill="none" stroke="#231F20" stroke-miterlimit="10" d="M198.4 645.5c0 3 9 14 9 14.7s2.6 0 5.2-1.6 c2.6-1.8 3.5-4.5 3.5-4.5l-3.4-4.5l-0.5-4.1l0.5-4.2l3.4-4.5c0 0-0.9-2.6-3.5-4.5c-2.6-1.8-5.2-1.6-5.2-1.6 S198.4 641 198 645.5z"/><path fill="none" stroke="#231F20" stroke-miterlimit="10" d="M195.2 644.1c3.3-1.9 8.1-15.2 8.1-15.2s-1.1-2.3-4-3.7 c-2.9-1.3-5.6-0.7-5.6-0.7l-2.1 5.2l-3.3 2.5l-3.9 1.6l-5.6-0.7c0 0-1.8 2.1-2.1 5.3c-0.3 3 1 5 1 5 S192 645 195 644.1z"/><path fill="none" stroke="#231F20" stroke-miterlimit="10" d="M194.4 648.4l-2.1 1l-23.9 23.2c0 0 3 3 7 5.8s9.8 4 9 4 l9.1-32.3L194.4 648.4z"/><path fill="none" stroke="#231F20" stroke-miterlimit="10" d="M200.1 645l2 1.3l32.2 8.4c0 0 1.1-4.7 1.2-9.2 c0.1-4.4-1.4-10.5-1.4-10.5l-32.3 9L200.1 645z"/><path fill="none" stroke="#231F20" stroke-miterlimit="10" d="M194.3 642.4l0.1-2.3l-8.3-32.3c0 0-4.7 1.4-8.6 3 c-3.9 2.1-8.5 6.4-8.5 6.4l23.6 23.9L194.3 642.4z"/><circle fill="#231F20" cx="196" cy="645" r="2"/><circle fill="#231F20" cx="173" cy="645" r="2"/><circle fill="#231F20" cx="207" cy="626" r="2"/><circle fill="#231F20" cx="207" cy="664" r="2"/></g><g><path fill="none" stroke="#231F20" stroke-miterlimit="10" d="M247.5 581.8c-3.5-0.3-14.3 7.5-14.3 7.5s-0.4 2 1 4 c1.6 2 4 3 4 3.5l4.4-2.9l3.8-0.2l3.9 0.8l4 3.4c0 0 2.5-0.7 4.4-3c1.9-2.3 1.8-4.7 1.8-4.7S251 582 247 581.8z"/><path fill="none" stroke="#231F20" stroke-miterlimit="10" d="M249.6 579.2c1.5 3 13 8 13 8.9s2.3-0.8 3.7-3.4 c1.5-2.6 1.2-5.2 1.2-5.2l-4.6-2.4l-2.1-3.3l-1.2-3.7l1.1-5.1c0 0-1.8-1.9-4.8-2.4c-2.9-0.5-5 0.7-5 0.7S248.1 576 249 579.2z"/><path fill="none" stroke="#231F20" stroke-miterlimit="10" d="M246.3 579.3c2-2.9 0.8-16.1 0.8-16.1s-1.8-1.6-4.8-1.5 c-3 0.1-5.1 1.6-5.1 1.6l0.3 5.2l-1.8 3.4l-2.6 2.9l-5 1.7c0 0-0.7 2 0 5.3c1 2 3 3 3 3.9S244.3 582 246 579.3z"/><path fill="none" stroke="#231F20" stroke-miterlimit="10" d="M247.3 583.3L246 585l-11 29.2c0 0 4 1 8 2 c4.1 0 10-0.3 10-0.3l-5.2-31L247.3 583.3z"/><path fill="none" stroke="#231F20" stroke-miterlimit="10" d="M250.9 578.1l2.2 0.3l30.7-5.8c0 0-1-4.4-2.7-8.2 c-1.7-3.8-5.4-8.4-5.4-8.4l-23.8 20.6L250.9 578.1z"/><path fill="none" stroke="#231F20" stroke-miterlimit="10" d="M244.9 578.2l-0.8-2l-19.9-24c0 0-3.4 3-5.9 6 c-2.5 3.3-4.7 8.8-4.7 8.8l29.5 10.8L244.9 578.2z"/><circle fill="#231F20" cx="247" cy="580" r="2"/><circle fill="#231F20" cx="228" cy="589" r="2"/><circle fill="#231F20" cx="249" cy="559" r="2"/><circle fill="#231F20" cx="264" cy="591" r="2"/></g><path fill="none" stroke="#231F20" stroke-miterlimit="10" d="M283.7 661.1c-6 0-10.8 4.8-10.8 10.8v14.5h21.6v-14.5 C294.5 665 289 661 283 661.1z"/><path fill="none" stroke="#231F20" stroke-miterlimit="10" d="M669.2 259.7c4.2-4.2 4.2-11 0-15.3l-10.3-10.3l-15.3 15.3l10.3 10 C658.1 263 665 263 669 259.7z"/><path fill="none" stroke="#231F20" stroke-miterlimit="10" d="M761.6 103.9c-24.8 0-44.9 20.4-44.8 45.5l0 61.3l89.7 0v-61.3 C806.4 124 786 103 761 103.9z"/><path fill="none" stroke="#231F20" stroke-miterlimit="10" d="M320.2 651.5c0-17.6-14.3-31.9-31.9-31.9s-31.9 14.3-31.9 31 c0 0 0 1 0 1.4l12.9-1.3c0-10.5 8.5-19.1 19.1-19.1c10.3 0 18 8 19 18.4L320.2 651.5z"/><path fill="none" stroke="#231F20" stroke-miterlimit="10" d="M638.2 275.4c10.8 14 30 16 44 5.7s16.5-30.8 5.7-44.8 c-0.3-0.4-0.6-0.7-0.9-1.1l-9.4 8.9c6.4 8 4 20.3-3.4 26.7c-8.2 6.3-19.8 5-26.3-2.9L638.2 275.4z"/><path fill="none" stroke="#231F20" stroke-miterlimit="10" d="M623 456.4c-5.8 7.7-15.1 12.7-25.5 12.7c-17.7 0-32-14.3-32-32 c0-17.7 14.3-32 32-32c2.2 0 4 0 6 0.6l-3.1 12.7c-1.1-0.2-2.2-0.3-3.4-0.3c-10.4 0-18.9 8.4-18.9 18.9s8.4 18 18 18 c6.2 0 11.7-3 15.1-7.6L623 456.4z"/><path fill="none" stroke="#231F20" stroke-miterlimit="10" d="M531 291.9c9.2-4.9 15.7-14.3 16.3-25.4c0.7-12.7-6.4-24-17.1-29.3 l-5.5 11.4c6.3 3 10 9 10 17.3c-0.4 6.6-4.2 12.1-9.7 15L531 291.9z"/><path fill="none" stroke="#231F20" stroke-miterlimit="10" d="M457 237.7c-9.2 4.9-15.7 14.3-16.3 25.4c-0.7 12 6 24 17 29 l5.5-11.4c-6.3-3.1-10.5-9.8-10.1-17.3c0.4-6.6 4.2-12.1 9.7-15L457 237.7z"/><rect x="610" y="103" fill="none" stroke="#231F20" stroke-miterlimit="10" width="106" height="106"/><path fill="none" stroke="#231F20" stroke-miterlimit="10" d="M801.6 321.5c8.6-12.7 13.6-28 13.6-44.5c0-17-5.3-32.7-14.3-45.6 l-9.4 7.3c6.8 10 10 23 10 37c0 13.6-3.9 26.3-10.7 36.9L801.6 321.5z"/><path fill="none" stroke="#231F20" stroke-miterlimit="10" d="M460 191.6c12.8 9 28 14 44 14.9c17 0 32.8-5.8 45.8-15.7 l-7.3-10.3c-10.7 7.5-23.5 11.8-37.2 11.8c-13.6 0-26.4-4.3-37.1-11.8L460 191.6z"/><rect x="318" y="454" transform="matrix(0.7726 -0.6349 0.6349 0.7726 -216.3734 315.1457)" fill="none" stroke="#231F20" stroke-miterlimit="10" width="27" height="10"/><rect x="295" y="448" transform="matrix(-0.138 -0.9904 0.9904 -0.138 -98.2675 823.0262)" fill="none" stroke="#231F20" stroke-miterlimit="10" width="27" height="10"/><rect x="308" y="432" transform="matrix(-0.7718 -0.6359 0.6359 -0.7718 292.8247 980.5471)" fill="none" stroke="#231F20" stroke-miterlimit="10" width="27" height="10"/><rect x="394" y="307" transform="matrix(-0.7723 0.6352 -0.6352 -0.7723 921.6689 295.7905)" fill="none" stroke="#231F20" stroke-miterlimit="10" width="27" height="10"/><rect x="669" y="310" transform="matrix(-0.9902 0.1399 -0.1399 -0.9902 1403.4828 533.233)" fill="none" stroke="#231F20" stroke-miterlimit="10" width="27" height="10"/><rect x="753" y="320" transform="matrix(-0.9902 0.1399 -0.1399 -0.9902 1572.9055 541.7183)" fill="none" stroke="#231F20" stroke-miterlimit="10" width="27" height="10"/><rect x="801" y="351" transform="matrix(-0.7486 0.6631 -0.6631 -0.7486 1662.0774 83.7411)" fill="none" stroke="#231F20" stroke-miterlimit="10" width="27" height="10"/><rect x="777" y="345" transform="matrix(0.1232 0.9924 -0.9924 0.1232 1042.1631 -477.8251)" fill="none" stroke="#231F20" stroke-miterlimit="10" width="27" height="10"/><rect x="791" y="331" transform="matrix(0.724 0.6898 -0.6898 0.724 454.4067 -462.556)" fill="none" stroke="#231F20" stroke-miterlimit="10" width="27" height="10"/><rect x="205" y="404" transform="matrix(-0.7489 -0.6627 0.6627 -0.7489 111.4219 861.6736)" fill="none" stroke="#231F20" stroke-miterlimit="10" width="27" height="10"/><rect x="182" y="367" transform="matrix(-0.1719 -0.9851 0.9851 -0.1719 -136.5456 629.979)" fill="none" stroke="#231F20" stroke-miterlimit="10" width="27" height="10"/><rect x="215" y="353" transform="matrix(-0.1719 -0.9851 0.9851 -0.1719 -84.1281 646.3644)" fill="none" stroke="#231F20" stroke-miterlimit="10" width="27" height="10"/><rect x="244" y="336" transform="matrix(-0.1719 -0.9851 0.9851 -0.1719 -33.7901 654.3093)" fill="none" stroke="#231F20" stroke-miterlimit="10" width="27" height="10"/><rect x="214" y="322" transform="matrix(0.1237 -0.9923 0.9923 0.1237 -125.0915 513.5038)" fill="none" stroke="#231F20" stroke-miterlimit="10" width="27" height="10"/><rect x="235" y="387" transform="matrix(-0.7489 -0.6627 0.6627 -0.7489 175.6687 851.5478)" fill="none" stroke="#231F20" stroke-miterlimit="10" width="27" height="10"/><rect x="267" y="373" transform="matrix(-0.7489 -0.6627 0.6627 -0.7489 239.9032 849.5267)" fill="none" stroke="#231F20" stroke-miterlimit="10" width="27" height="10"/><rect x="260" y="404" transform="matrix(-0.9089 -0.417 0.417 -0.9089 352.7117 896.5121)" fill="none" stroke="#231F20" stroke-miterlimit="10" width="27" height="10"/><rect x="229" y="423" transform="matrix(-0.9089 -0.417 0.417 -0.9089 285.6563 920.1855)" fill="none" stroke="#231F20" stroke-miterlimit="10" width="27" height="10"/><rect x="335" y="392" transform="matrix(-0.9867 -0.1623 0.1623 -0.9867 629.1334 846.6333)" fill="none" stroke="#231F20" stroke-miterlimit="10" width="27" height="10"/><rect x="337" y="381" transform="matrix(-0.9867 -0.1623 0.1623 -0.9867 634.3928 825.5953)" fill="none" stroke="#231F20" stroke-miterlimit="10" width="27" height="10"/><rect x="711" y="337" transform="matrix(-0.9867 -0.1623 0.1623 -0.9867 1384.2271 799.695)" fill="none" stroke="#231F20" stroke-miterlimit="10" width="27" height="10"/><rect x="712" y="327" transform="matrix(-0.9867 -0.1623 0.1623 -0.9867 1389.4952 778.6428)" fill="none" stroke="#231F20" stroke-miterlimit="10" width="27" height="10"/><rect x="636" y="473" fill="none" stroke="#231F20" stroke-miterlimit="10" width="65" height="2"/><rect x="633" y="450" fill="none" stroke="#231F20" stroke-miterlimit="10" width="2" height="22"/><rect x="565" y="265" fill="none" stroke="#231F20" stroke-miterlimit="10" width="2" height="61"/><ellipse fill="none" stroke="#231F20" stroke-miterlimit="10" cx="108" cy="626" rx="7" ry="9"/><ellipse fill="none" stroke="#231F20" stroke-miterlimit="10" cx="798" cy="187" rx="7" ry="9"/><ellipse fill="none" stroke="#231F20" stroke-miterlimit="10" cx="69" cy="626" rx="7" ry="9"/><ellipse fill="none" stroke="#231F20" stroke-miterlimit="10" cx="30" cy="626" rx="7" ry="9"/><g><circle fill="none" stroke="#231F20" stroke-miterlimit="10" cx="55" cy="699" r="10"/><line fill="none" stroke="#231F20" stroke-miterlimit="10" x1="61" y1="694" x2="49" y2="704"/><line fill="none" stroke="#231F20" stroke-miterlimit="10" x1="49" y1="694" x2="61" y2="704"/></g><g><circle fill="none" stroke="#231F20" stroke-miterlimit="10" cx="601" cy="437" r="10"/><line fill="none" stroke="#231F20" stroke-miterlimit="10" x1="607" y1="431" x2="595" y2="442"/><line fill="none" stroke="#231F20" stroke-miterlimit="10" x1="595" y1="431" x2="607" y2="442"/></g><g><circle fill="none" stroke="#231F20" stroke-miterlimit="10" cx="675" cy="454" r="10"/><line fill="none" stroke="#231F20" stroke-miterlimit="10" x1="681" y1="449" x2="669" y2="459"/><line fill="none" stroke="#231F20" stroke-miterlimit="10" x1="669" y1="449" x2="681" y2="459"/></g><g><circle fill="none" stroke="#231F20" stroke-miterlimit="10" cx="470" cy="263" r="10"/><line fill="none" stroke="#231F20" stroke-miterlimit="10" x1="476" y1="258" x2="464" y2="268"/><line fill="none" stroke="#231F20" stroke-miterlimit="10" x1="464" y1="258" x2="476" y2="268"/></g><g><circle fill="none" stroke="#231F20" stroke-miterlimit="10" cx="518" cy="263" r="10"/><line fill="none" stroke="#231F20" stroke-miterlimit="10" x1="525" y1="258" x2="513" y2="268"/><line fill="none" stroke="#231F20" stroke-miterlimit="10" x1="513" y1="258" x2="525" y2="268"/></g><g><circle fill="none" stroke="#231F20" stroke-miterlimit="10" cx="584" cy="235" r="10"/><line fill="none" stroke="#231F20" stroke-miterlimit="10" x1="590" y1="230" x2="578" y2="240"/><line fill="none" stroke="#231F20" stroke-miterlimit="10" x1="578" y1="230" x2="590" y2="240"/></g><circle fill="none" stroke="#231F20" stroke-miterlimit="10" cx="200" cy="170" r="13"/><circle fill="none" stroke="#231F20" stroke-miterlimit="10" cx="256" cy="170" r="13"/><circle fill="none" stroke="#231F20" stroke-miterlimit="10" cx="396" cy="170" r="13"/><circle fill="none" stroke="#231F20" stroke-miterlimit="10" cx="759" cy="138" r="13"/><path fill="none" stroke="#231F20" stroke-miterlimit="10" d="M752.3 63.7h11.8c0 0 1 6 2 9.5s6.7 7 6 7l-5.5 10 c0 0-4.8-2.3-9.9-2.3s-9.8 2.3-9.8 2.3l-5.7-10.2c0 0 4.2-2.2 6.8-6.7S752.3 63 752 63.7z"/><path fill="none" stroke="#231F20" stroke-miterlimit="10" d="M778.3 412.2l9.4-7.2c0 0 4 4 8 5.8c3.6 1 9 1 9 1 l1.8 11.4c0 0-5.3 1.1-9.3 4.1s-6.3 7.8-6.3 7.8l-10.7-4.7c0 0 2-4.2 1.4-9.4C781.6 416 778 412 778 412.2z"/><path fill="none" stroke="#231F20" stroke-miterlimit="10" d="M774.1 380.9l10.9 4.7c0 0-1.5 5.9-1.2 9.8s3.3 9 3 9.1l-9.1 7 c0 0-3.5-4.1-8.2-6.1c-4.7-2-9.9-1.7-9.9-1.7l-1.2-11.6c0 0 4.7-0.3 8.9-3.4C772 385 774 380 774 380.9z"/><path fill="none" stroke="#231F20" stroke-miterlimit="10" d="M743.3 415.6l-10.6-5.2c0 0-3.5 5-6.7 7.3c-3.2 2.3-9.1 3.4-9.1 3 l0.5 11.5c0 0 5 0 9 2.2c4.6 2 7 6 7 6.4l9.5-6.7c0 0-2.8-3.8-3.2-9C741 420 743 415 743 415.6z"/><path fill="none" stroke="#231F20" stroke-miterlimit="10" d="M741.3 384.1l-9.7 6.8c0 0 2 5 3 9.4c0.5 3.9-1.5 9.6-1.5 9 l10.3 5.2c0 0 2.6-4.7 6.8-7.6s9.3-3.6 9.3-3.6l-1.1-11.6c0 0-4.7 0.6-9.4-1.6C744.4 388 741 384 741 384.1z"/><path fill="none" stroke="#231F20" stroke-miterlimit="10" d="M509.6 302.5l10.3 5.8c0 0-2.1 5.7-2.2 9.7s2.4 9 2 9.4l-9.8 6 c0 0-3.1-4.4-7.5-6.9s-9.6-2.7-9.6-2.7l0-11.6c0 0 4 0 9.2-2.5C507 307 509 302 509 302.5z"/><path fill="none" stroke="#231F20" stroke-miterlimit="10" d="M476.7 302.3l-10.4 5.7c0 0 2 5 2 9.7c0.1 4-2.4 9.4-2.4 9 l9.7 6.2c0 0 3.1-4.4 7.5-6.8c4.4-2.5 9.7-2.7 9.7-2.7l0-11.6c0 0-4.7 0.1-9.2-2.5C479.3 307 476 302 476 302.3z"/><path fill="none" stroke="#231F20" stroke-miterlimit="10" d="M676.8 27.1h11.8c0 0 1 6 2 9.5s6.7 7 6 7l-5.5 10 c0 0-4.8-2.3-9.9-2.3s-9.8 2.3-9.8 2.3l-5.7-10.2c0 0 4.2-2.2 6.8-6.7S676.8 27 676 27.1z"/><path fill="none" stroke="#231F20" stroke-miterlimit="10" d="M632.8 27.1h11.8c0 0 1 6 2 9.5s6.7 7 6 7l-5.5 10 c0 0-4.8-2.3-9.9-2.3s-9.8 2.3-9.8 2.3l-5.7-10.2c0 0 4.2-2.2 6.8-6.7S632.8 27 632 27.1z"/><rect x="608" y="89" fill="none" stroke="#231F20" stroke-miterlimit="10" width="27" height="10"/><rect x="635" y="89" fill="none" stroke="#231F20" stroke-miterlimit="10" width="27" height="10"/><rect x="662" y="89" fill="none" stroke="#231F20" stroke-miterlimit="10" width="27" height="10"/><rect x="689" y="89" fill="none" stroke="#231F20" stroke-miterlimit="10" width="27" height="10"/><g><g><line fill="none" stroke="#231F20" stroke-miterlimit="10" x1="457" y1="440" x2="459" y2="438"/><line fill="none" stroke="#231F20" stroke-miterlimit="10" stroke-dasharray="5.8445,5.8445" x1="463" y1="434" x2="527" y2="370"/><line fill="none" stroke="#231F20" stroke-miterlimit="10" x1="529" y1="368" x2="532" y2="365"/></g></g><g><g><line fill="none" stroke="#231F20" stroke-miterlimit="10" x1="457" y1="365" x2="459" y2="368"/><line fill="none" stroke="#231F20" stroke-miterlimit="10" stroke-dasharray="5.8445,5.8445" x1="463" y1="372" x2="527" y2="436"/><line fill="none" stroke="#231F20" stroke-miterlimit="10" x1="529" y1="438" x2="532" y2="440"/></g></g><polyline fill="none" stroke="#231F20" stroke-width="3" stroke-miterlimit="10" points="174,144 174,210 289,210 289,144"/><polyline fill="none" stroke="#231F20" stroke-width="3" stroke-miterlimit="10" points="359,144 359,210 424,210 424,144"/><line fill="none" stroke="#231F20" stroke-width="3" stroke-miterlimit="10" x1="232" y1="210" x2="232" y2="144"/></svg>